<?xml version="1.0" encoding="UTF-8"?> <svg xmlns="http://www.w3.org/2000/svg" id="Capa_1" data-name="Capa 1" viewBox="0 0 100.33 104.29"> <rect width="100%" height="100%" fill="#6BA539"/><defs><style>.cls-1{fill:#fff;}</style></defs><title>logo la hornilla</title><path class="cls-1" d="M1.35,88.53a2.66,2.66,0,0,0,.89,0h96.5c.32,0,.33.21.33.44s0,.46-.33.44c-.2,0-.4,0-.6,0H2.19c-.28,0-.56,0-.84,0Z"></path><path class="cls-1" d="M47.7,62.78c0-6,0-12.07,0-18.1,0-.52.11-.69.66-.67,1.16,0,2.32.05,3.48,0,.61,0,.68.23.68.73,0,4.85,0,9.71,0,14.56,0,.14,0,.28,0,.42-.06.44.12.58.57.58,2,0,3.93,0,5.9,0,5.41,0,10.82,0,16.24,0,.55,0,.7-.15.69-.69,0-5,0-9.91,0-14.86,0-.58.15-.76.73-.73,1.14,0,2.29,0,3.43,0,.51,0,.63.15.63.64,0,3.59,0,7.18,0,10.77V80.75c0,.81,0,.81-.81.81-1.08,0-2.17,0-3.25,0-.6,0-.72-.19-.72-.75,0-5.89,0-11.79,0-17.68,0-.77,0-.78-.78-.78H53.28c-.78,0-.78,0-.78.8V80.79c0,.77,0,.77-.79.77-1.1,0-2.21,0-3.31,0-.6,0-.71-.19-.71-.75C47.71,74.82,47.7,68.8,47.7,62.78Z"></path><path class="cls-1" d="M19.78,59.15c0-7.22,0-14.44,0-21.66,0-.52.1-.72.68-.7,1.44,0,2.89,0,4.33,0,.52,0,.62.15.62.64q0,16.7,0,33.38c0,2.45,0,4.89,0,7.34,0,.51.08.69.65.66,3.54-.17,7.08-.31,10.62-.47,2-.08,4-.14,5.94-.26.63,0,.8.15.75.75a20.55,20.55,0,0,0,0,2.22c0,.4-.12.52-.51.52-1.19,0-2.37,0-3.55,0H20.57c-.78,0-.79,0-.79-.76Z"></path><path class="cls-1" d="M29.89,2.76l4.53,3c1.66,1.09,3.34,2.16,5,3.29a9.71,9.71,0,0,1,4.44,8.27c0,2.51,0,5,0,7.52,0,.63,0,.63-.56.31Q37.84,22,32.4,18.84a4.42,4.42,0,0,1-1.78-2.13,8.07,8.07,0,0,1-.73-3.43c0-3.25,0-6.5,0-9.75Z"></path><path class="cls-1" d="M50.2,38.47c.1-3.2-.18-6.31.14-9.4a8.87,8.87,0,0,1,3.7-6.5C57.3,20.25,60.69,18.1,64,15.9c.23.08.19.22.19.33,0,3.6,0,7.21,0,10.82a6.75,6.75,0,0,1-1.36,3.86,3,3,0,0,1-1,.88L50.53,38.33C50.46,38.37,50.39,38.39,50.2,38.47Z"></path><path class="cls-1" d="M36,103.25a1.37,1.37,0,0,1-1.68-.67c-.61-.89-1.32-1.71-2-2.56-.15-.2-.3-.43-.58-.32s-.16.38-.17.58q0,1.26,0,2.52c0,.32,0,.53-.44.52s-.46-.13-.46-.49q0-3.21,0-6.43c0-.37.12-.49.48-.48.74,0,1.49,0,2.23,0,1.1,0,1.73.45,1.89,1.3a1.88,1.88,0,0,1-1.25,2.14c-.8.34-.8.34-.24,1Zm-4.41-5.51h0v1.2c0,.17,0,.32.25.33a2.89,2.89,0,0,0,2.06-.44,1.55,1.55,0,0,0,.54-1.56,1.1,1.1,0,0,0-.77-1,2.87,2.87,0,0,0-1.94,0c-.36.16-.09.88-.14,1.35A.48.48,0,0,0,31.62,97.74Z"></path><path class="cls-1" d="M48.52,98.37c0-.66,0-1.32,0-2,0-.28,0-.47.37-.46s.31.22.3.44c-.07,1.5-.12,3-.22,4.5a2.61,2.61,0,0,1-2.26,2.51,4.56,4.56,0,0,1-2.2-.12,2.33,2.33,0,0,1-1.61-2.36c0-1.52,0-3,0-4.57,0-.38.21-.4.49-.41s.47.09.46.45c0,1.22-.08,2.44-.1,3.66a6.75,6.75,0,0,0,.11,1.19,2,2,0,0,0,1.9,1.77,2.15,2.15,0,0,0,2.57-1.46,5.09,5.09,0,0,0,.24-1.6c0-.52,0-1,0-1.56Z"></path><path class="cls-1" d="M80,97.14c-.38-.69-.87-1.17-1.73-.94a1.31,1.31,0,0,0-1,1,1.25,1.25,0,0,0,.44,1.29,4.16,4.16,0,0,0,1.27.66c1.41.55,1.82,1.18,1.62,2.42a2.35,2.35,0,0,1-2.47,1.85,2.94,2.94,0,0,1-1.06-.12c-.86-.29-.91-.41-.54-1.34a2.21,2.21,0,0,0,1.34,1,1.57,1.57,0,0,0,1.84-.88,1.37,1.37,0,0,0-.67-1.88,11.72,11.72,0,0,0-1.14-.52c-1.17-.52-1.65-1.29-1.43-2.33a2.13,2.13,0,0,1,2.23-1.63,2.62,2.62,0,0,1,.83.1C80.43,96.11,80.49,96.26,80,97.14Z"></path><path class="cls-1" d="M19.78,99.64c0-1.06,0-2.12,0-3.19,0-.37.07-.54.49-.53,1,0,2,0,3,0,.22,0,.46,0,.45.32s-.26.23-.43.22c-.73,0-1.45,0-2.17-.06-.3,0-.41.09-.41.36,0,.7,0,1.41,0,2.11,0,.36.24.36.49.35l1.8-.08c.19,0,.47-.12.47.26s-.25.27-.46.26c-.6,0-1.2,0-1.8-.06-.39,0-.53.14-.51.53.05.88.05,1.76.1,2.64,0,.36,0,.55-.44.54s-.61-.07-.59-.55C19.81,101.73,19.78,100.69,19.78,99.64Z"></path><path class="cls-1" d="M67.75,99.84c0,1,0,2,0,3,0,.37-.11.47-.48.47s-.48-.11-.48-.48c0-1.92,0-3.84,0-5.76,0-.5-.13-.7-.64-.63s-.84,0-1.26.07c-.17,0-.36.1-.39-.2s.1-.4.38-.39h4.69c.26,0,.48,0,.45.37s-.3.22-.48.2c-1.81-.2-1.81-.2-1.81,1.6Z"></path><path class="cls-1" d="M57.76,99.6c0,1.08,0,2.16,0,3.24,0,.44-.18.47-.53.48s-.52-.07-.52-.49q0-3.21,0-6.42c0-.43.17-.49.53-.49s.53.09.52.5C57.74,97.48,57.76,98.54,57.76,99.6Z"></path></svg>